<?xml version="1.0" encoding="UTF-8"?><svg xmlns="http://www.w3.org/2000/svg" viewBox="0 0 589.43 437.95"><defs><style>.c{fill:#324a54;}.d{fill:#b2bec3;}</style></defs><g id="a"><g><polygon class="c" points="330.78 103.26 330.78 116.56 330.74 116.58 330.74 103.19 330.78 103.26"/><polygon class="c" points="330.78 103.21 330.78 116.61 330.74 116.58 330.74 103.19 330.78 103.21"/><polygon class="c" points="330.78 211.05 330.78 211.12 330.72 211.09 330.78 211.05"/><polygon class="c" points="330.78 224.38 330.78 224.45 330.72 224.48 330.78 224.38"/><polygon class="d" points="430.65 160.93 430.65 276.3 419.07 283 342.22 327.41 330.78 334.03 330.78 320.64 419.07 269.61 419.07 255.56 330.78 306.59 330.78 293.2 419.07 242.17 419.07 228.47 330.78 279.5 330.78 266.12 419.07 215.09 419.07 201.41 330.78 252.44 330.78 239.04 419.07 188.02 419.07 173.42 330.78 224.45 330.78 211.05 412.5 163.83 400.19 156.72 330.78 196.84 330.78 183.46 388.62 150.03 377.15 143.41 330.78 170.22 330.78 156.83 365.57 136.71 353.93 129.99 330.78 143.37 330.78 129.97 342.35 123.28 330.78 116.61 330.78 103.21 353.93 116.59 365.51 123.28 377.15 130.02 388.75 136.71 400.2 143.33 411.78 150.02 419.07 154.24 424.08 157.14 430.65 160.93"/><polygon class="c" points="330.78 183.46 330.78 183.49 330.74 183.47 330.78 183.46"/><polygon class="c" points="330.78 196.81 330.78 196.84 330.74 196.86 330.78 196.81"/><polygon class="c" points="330.78 156.83 330.78 156.87 330.74 156.85 330.78 156.83"/><polygon class="c" points="330.78 170.17 330.78 170.22 330.74 170.23 330.78 170.17"/><polygon class="c" points="330.78 129.97 330.78 130.02 330.74 130 330.78 129.97"/><polygon class="c" points="330.78 143.32 330.78 143.37 330.74 143.39 330.78 143.32"/><polygon class="c" points="330.78 239.04 330.78 239.1 330.73 239.07 330.78 239.04"/><path class="c" d="M330.74,143.39l.04-.07v-13.3l-.04-.02-11.6-6.7,11.6-6.72v-13.39l-23.18,13.4-11.59,6.71-11.65,6.72-11.57,6.69-11.47,6.62-11.57,6.7h-.01l-7.47,4.32-9.18,5.31-2.4,1.38v115.28l4.74,2.74,13.13,7.59,5.83,3.36,3.83,2.22,1.87,1.08,.05,.03,14.09,8.14,9.29,5.37,12.1,7h.01l11.32,6.54,12.15,7.03,11.58,6.69,.14-.08v-13.23l-.14-.08-12.15-7.03,12.29-7.1v-13.39l-23.87,13.8-11.86-6.85,35.73-20.65v-13.38l-47.3,27.34-11.79-6.81-.06-.03,59.15-34.18v-13.34l-.05-.03-88.5-51.15v-14.58l88.49,51.14,.06-.1v-13.26l-.06-.03-81.75-47.25,12.31-7.12,69.46,40.14,.04-.05v-13.32l-.04-.02-57.86-33.44,11.45-6.63,46.41,26.83,.04-.06v-13.3l-.04-.02-34.84-20.14,11.66-6.72,23.18,13.4Zm-70.69,136.53l-17.82-10.3v-14.54l30.39,17.57-12.57,7.27Zm24.16-13.96l-41.98-24.26v-13.03l53.25,30.78-11.27,6.51Zm34.94-20.19l-12.09,6.98-64.83-37.46v-13.99l76.92,44.47Z"/><polygon class="c" points="330.78 320.64 330.78 320.8 330.64 320.72 330.78 320.64"/><polygon class="c" points="330.78 334.03 330.78 334.19 330.64 334.11 330.78 334.03"/></g></g><g id="b"/></svg>